<?xml version="1.0" encoding="UTF-8" standalone="no"?>
<!-- Generator: Adobe Illustrator 27.5.0, SVG Export Plug-In . SVG Version: 6.00 Build 0)  -->

<svg
   xmlns:dc="http://purl.org/dc/elements/1.1/"
   xmlns:cc="http://creativecommons.org/ns#"
   xmlns:rdf="http://www.w3.org/1999/02/22-rdf-syntax-ns#"
   xmlns:svg="http://www.w3.org/2000/svg"
   xmlns="http://www.w3.org/2000/svg"
   xmlns:sodipodi="http://sodipodi.sourceforge.net/DTD/sodipodi-0.dtd"
   xmlns:inkscape="http://www.inkscape.org/namespaces/inkscape"
   version="1.1"
   x="0px"
   y="0px"
   viewBox="0 0 96 133.36182"
   xml:space="preserve"
   id="svg34"
   sodipodi:docname="leaf-5.svg"
   width="96"
   height="133.36182"
   inkscape:version="0.92.5 (2060ec1f9f, 2020-04-08)"><metadata
   id="metadata40"><rdf:RDF><cc:Work
       rdf:about=""><dc:format>image/svg+xml</dc:format><dc:type
         rdf:resource="http://purl.org/dc/dcmitype/StillImage" /><dc:title></dc:title></cc:Work></rdf:RDF></metadata><defs
   id="defs38" /><sodipodi:namedview
   pagecolor="#ffffff"
   bordercolor="#666666"
   borderopacity="1"
   objecttolerance="10"
   gridtolerance="10"
   guidetolerance="10"
   inkscape:pageopacity="0"
   inkscape:pageshadow="2"
   inkscape:window-width="1366"
   inkscape:window-height="705"
   id="namedview36"
   showgrid="false"
   inkscape:zoom="0.944"
   inkscape:cx="36.87535"
   inkscape:cy="3.5951894"
   inkscape:window-x="-8"
   inkscape:window-y="-8"
   inkscape:window-maximized="1"
   inkscape:current-layer="g31"
   fit-margin-top="0"
   fit-margin-left="0"
   fit-margin-right="0"
   fit-margin-bottom="0" />

<g
   id="OBJECTS"
   transform="translate(-178.38699,-126.64565)">
	<g
   id="g31">
		
		
		
		
		
		
		
		<g
   id="g21"
   transform="matrix(1.4241457,0,0,1.4241457,-366.82745,-164.59169)"
   style="fill:#ffffff">
			<path
   d="m 448.584,255.854 c -0.886,-0.619 -2.285,-1.245 -3.733,-1.552 0.688,-0.478 1.279,-1.026 1.666,-1.487 0.881,-1.055 1.36,-2.302 1.042,-3.676 -0.348,-1.509 -2.064,-2.739 -3.549,-2.841 -1.972,-0.135 -3.701,1.353 -4.735,3.206 -0.028,-1.265 -0.389,-2.477 -1.385,-3.584 -1.31,-1.459 -4.282,-2.94 -5.938,-1.135 -1.303,1.421 -1.17,3.268 -0.422,5.049 -1.204,-0.532 -2.477,-0.865 -3.557,-0.95 -3.581,-0.282 -3.96,4.221 -1.493,5.952 1.299,0.911 2.868,1.389 4.421,1.714 -0.03,0.023 -0.065,0.048 -0.094,0.072 -1.149,0.976 -1.32,2.594 -1.091,3.979 0.062,0.374 0.174,0.735 0.325,1.077 -6.299,5.435 -13.051,11.136 -17.369,18.035 1.553,-6.045 2.434,-12.288 3.012,-18.06 0.326,-3.271 0.224,-6.605 0.153,-9.931 0.307,-2.355 1.291,-4.396 2.655,-6.239 0.853,-0.133 1.741,-0.149 2.579,-0.21 3.649,-0.21 7.018,-1.052 9.896,-3.438 2.034,-1.685 4.49,-5.965 4.631,-8.632 -1.403,0.843 -2.877,1.053 -4.491,1.193 -6.371,0.49 -13.786,2.379 -13.542,10.194 -0.682,0.886 -1.291,1.844 -1.761,2.854 0.041,-3.082 0.279,-6.132 1.097,-9.092 1.35,-4.89 3.612,-9.447 5.854,-14 -0.022,3.852 1.355,8.304 3.837,9.097 3.459,1.107 3.785,-3.488 3.768,-5.765 -0.006,-0.801 0.011,-1.684 -0.016,-2.577 1.801,3.418 4.923,6.576 7.81,4.792 2.683,-1.66 1.745,-4.987 0.15,-7.009 -0.375,-0.477 -0.803,-0.949 -1.259,-1.41 0.563,-0.065 1.102,-0.141 1.595,-0.21 2.661,-0.373 5.626,-3.532 4.11,-6.301 -1.499,-2.74 -5.323,-3.403 -8.36,-2.37 0.896,-3.826 -0.53,-8.142 -5.196,-8.099 -2.281,0.021 -3.445,1.595 -3.922,3.607 -1.675,-2.824 -4.345,-4.703 -7.522,-2.117 -3.348,2.722 -0.513,6.677 2.66,8.797 -2.781,0.085 -5.667,1.516 -6.223,4.137 -0.425,2.007 0.37,4.402 2.093,5.556 1.464,0.981 3.414,0.396 4.823,-0.351 10e-4,0 0.002,-0.001 0.004,-0.001 -1.831,3.535 -3.507,7.148 -4.919,10.88 -2.605,6.887 -1.729,13.201 -1.936,20.378 -0.073,2.576 -0.271,5.147 -0.563,7.707 -1.586,-9.467 -5.534,-18.96 -11.285,-26.759 0.426,-0.891 0.619,-1.863 0.473,-2.734 -0.153,-0.899 -0.596,-1.725 -1.183,-2.462 1.251,0.28 2.535,0.354 3.992,0.137 1.903,-0.283 4.113,-1.268 4.189,-3.456 0.09,-2.584 -3.109,-3.773 -5.135,-4.019 -1.547,-0.188 -3.08,0.075 -4.385,0.747 1.18,-1.101 2.134,-2.383 2.465,-4.055 0.353,-1.788 -0.046,-4.484 -2.136,-5.05 -2.374,-0.642 -4.436,0.98 -5.341,3.057 -0.42,0.961 -0.792,2.204 -0.949,3.46 -1.601,-3.606 -4.595,-7.199 -7.949,-5.696 -2.935,1.313 -2.783,5.01 -1.1,7.143 0.806,1.02 1.915,1.832 3.141,2.427 -0.485,0.122 -0.944,0.27 -1.342,0.412 -1.848,0.664 -3.771,1.933 -4.22,3.973 -0.517,2.351 1.321,4.814 3.585,5.308 1.978,0.43 4.478,-0.447 6.01,-1.982 0.328,3.145 3.106,6.211 6.466,5.674 0.802,-0.129 1.549,-0.563 2.178,-1.161 2.029,3.043 3.925,6.172 5.565,9.507 1.147,2.334 2.102,4.729 2.932,7.161 -0.869,-0.696 -1.845,-1.29 -2.886,-1.778 -1.59,-1.562 -3.14,-3.379 -5.069,-4.443 -2.878,-1.543 -6.386,-0.49 -9.403,-0.28 -1.685,0.141 -3.368,0.211 -4.982,0.702 0,0.069 0,0.069 0,0.141 2.666,1.754 5.614,4.632 8.632,5.613 2.526,0.842 5.754,0.21 8.211,-0.422 0.427,-0.106 0.836,-0.23 1.245,-0.346 1.788,0.757 3.487,1.682 4.952,2.967 1.115,3.642 1.96,7.363 2.648,11.126 -0.561,3.432 -1.279,6.839 -2.138,10.201 -1.02,3.988 -2.538,7.76 -4.071,11.53 -0.127,-1.669 -0.438,-3.392 -0.906,-5.1 0.108,-1.571 0.198,-3.343 0.094,-4.693 -0.421,-4.421 -0.561,-7.088 -4.632,-9.756 -4.35,-2.947 -9.823,-3.227 -14.315,-5.754 0.422,1.475 0.352,3.018 0.422,4.491 0.21,6.035 1.544,11.93 7.719,14.387 3.056,1.17 6.405,1.272 9.392,2.56 0.608,1.996 1.015,4.052 1.305,6.145 -0.737,1.834 -1.458,3.677 -2.101,5.556 -0.188,0.544 0.569,0.769 0.865,0.364 2.15,-2.942 3.876,-6.247 5.285,-9.742 0.009,-0.02 0.024,-0.032 0.032,-0.054 0.052,-0.143 0.11,-0.281 0.165,-0.423 0.053,-0.135 0.105,-0.271 0.158,-0.406 1.326,-3.338 3.143,-6.256 5.254,-8.926 2.491,-1.213 4.891,-1.664 7.291,-1.747 0.489,0.282 0.953,0.565 1.406,0.849 3.087,2.035 5.543,4.14 9.332,4.842 5.264,1.053 7.368,-1.052 10.807,-4.561 v -0.069 c -1.754,-0.211 -3.298,-0.983 -4.911,-1.614 -6.059,-2.635 -11.438,-4.464 -17.008,-0.793 -1.913,0.174 -3.772,0.598 -5.461,1.338 4.224,-4.859 9.332,-8.982 13.982,-13.558 1.283,1.339 3.28,1.884 4.983,0.627 0.07,-0.053 0.133,-0.115 0.2,-0.171 0.207,1.42 0.94,2.782 2.082,3.641 1.447,1.088 3.2,0.79 4.511,-0.336 1.536,-1.318 1.952,-3.509 1.652,-5.417 -0.012,-0.075 -0.035,-0.149 -0.051,-0.225 1.114,0.305 2.19,0.453 2.789,0.448 3.55,-0.031 4.09,-3.934 1.444,-5.785 z m -42.638,-29.152 c 0.253,0.091 0.478,0.208 0.66,0.352 -0.216,-0.128 -0.436,-0.245 -0.66,-0.352 z m 28.946,33.107 c 0.002,-0.002 0.002,-0.002 0.002,-0.004 0,10e-4 0,10e-4 0,0.002 0,0 0,10e-4 -0.002,0.002 z"
   id="path19"
   inkscape:connector-curvature="0"
   style="fill:#ffffff" />
		</g>
		
		
		
		
	</g>
</g>
</svg>