<?xml version="1.0" encoding="UTF-8" standalone="no"?>
<!-- Generator: Adobe Illustrator 27.5.0, SVG Export Plug-In . SVG Version: 6.00 Build 0)  -->

<svg
   xmlns:dc="http://purl.org/dc/elements/1.1/"
   xmlns:cc="http://creativecommons.org/ns#"
   xmlns:rdf="http://www.w3.org/1999/02/22-rdf-syntax-ns#"
   xmlns:svg="http://www.w3.org/2000/svg"
   xmlns="http://www.w3.org/2000/svg"
   xmlns:sodipodi="http://sodipodi.sourceforge.net/DTD/sodipodi-0.dtd"
   xmlns:inkscape="http://www.inkscape.org/namespaces/inkscape"
   version="1.1"
   x="0px"
   y="0px"
   viewBox="0 0 96 142.81708"
   xml:space="preserve"
   id="svg423"
   sodipodi:docname="leaf-3.svg"
   width="96"
   height="142.81708"
   inkscape:version="0.92.5 (2060ec1f9f, 2020-04-08)"
   inkscape:export-filename="C:\Users\siael\OneDrive\www\enfase\assets\leaf-3.png"
   inkscape:export-xdpi="96"
   inkscape:export-ydpi="96"><metadata
   id="metadata429"><rdf:RDF><cc:Work
       rdf:about=""><dc:format>image/svg+xml</dc:format><dc:type
         rdf:resource="http://purl.org/dc/dcmitype/StillImage" /><dc:title></dc:title></cc:Work></rdf:RDF></metadata><defs
   id="defs427">
	
	
	
	
	
	
	
	
	
	
	
	

		
		
		
		
		
		
		
		
		
		
		
		
		
	
		
		
		
		
		
		
		
		
		
		
		
		
		
		
		
		
		
		
		
		
		
		
		
		
		
		
		
		
		
	
		
		
		
		
		
		
		
		
	
		
		
		
		
		
		
		
		
		
		
		
		
		
		
		
		
		
		
		
		
		
		
		
		
		
		
		
		
		
	
		
		
		
		
		
		
		
		
		
		
		
		
		
		
	
		
		
		
		
		
		
		
		
		
		
		
		
		
		
		
		
		
		
		
		
		
		
		
		
		
	
		
		
	
		
		
		
		
		
		
		
		
		
		
		
		
		
		
		
		
		
		
		
		
		
		
	
		
		
		
		
		
		
		
		
		
		
		
		
		
		
		
		
		
		
		
		
		
		
		
		
		
		
		
		
		
	
		
		
	
		
		
	
			
		
			
			
		</defs><sodipodi:namedview
   pagecolor="#ffffff"
   bordercolor="#666666"
   borderopacity="1"
   objecttolerance="10"
   gridtolerance="10"
   guidetolerance="10"
   inkscape:pageopacity="0"
   inkscape:pageshadow="2"
   inkscape:window-width="1366"
   inkscape:window-height="705"
   id="namedview425"
   showgrid="false"
   showguides="true"
   inkscape:guide-bbox="true"
   fit-margin-top="0"
   fit-margin-left="0"
   fit-margin-right="0"
   fit-margin-bottom="0"
   inkscape:zoom="7.552"
   inkscape:cx="9.1849091"
   inkscape:cy="12.85646"
   inkscape:window-x="-8"
   inkscape:window-y="-8"
   inkscape:window-maximized="1"
   inkscape:current-layer="svg423" />
<g
   id="BACKGROUND"
   transform="translate(-182.71688,-175.0274)">
</g>
<g
   id="g1652"
   transform="matrix(0.78469197,0,0,0.78469197,-12.040314,-190.54832)"
   style="fill:#ffffff"><path
     inkscape:connector-curvature="0"
     id="path179"
     d="m 100.631,295.523 c -3.623,1.726 -6.985,3.861 -10.199,6.22 -3.205,2.366 -6.217,5.002 -8.977,7.888 -5.513,5.765 -9.989,12.627 -12.676,20.215 -2.728,7.571 -3.598,15.775 -2.839,23.776 0.728,8.02 2.966,15.829 6.034,23.22 l -0.069,-0.215 c 0.651,2.642 1.544,5.022 2.556,7.426 1.01,2.386 2.153,4.709 3.404,6.97 2.491,4.531 5.426,8.8 8.643,12.838 3.248,4.012 6.777,7.797 10.584,11.281 3.796,3.494 7.829,6.728 12.047,9.694 l 2.038,-2.96 c -4.149,-2.805 -8.119,-5.87 -11.863,-9.19 -3.755,-3.31 -7.242,-6.915 -10.461,-10.743 -3.187,-3.852 -6.106,-7.935 -8.594,-12.269 -1.249,-2.163 -2.394,-4.385 -3.407,-6.661 -1.007,-2.255 -1.932,-4.642 -2.54,-6.925 l -0.038,-0.144 -0.031,-0.071 c -3.122,-7.156 -5.428,-14.704 -6.272,-22.453 -0.872,-7.731 -0.177,-15.659 2.334,-23.044 2.471,-7.398 6.705,-14.172 12.017,-19.931 2.658,-2.882 5.577,-5.531 8.696,-7.922 3.118,-2.379 6.435,-4.563 9.928,-6.306 z"
     style="fill:#ffffff" /><path
     inkscape:connector-curvature="0"
     id="path181"
     d="m 137.685,273.409 c -1.729,1.016 -3.405,1.971 -5.094,2.909 l -4.996,2.811 -9.935,5.534 c -0.827,0.462 -1.647,0.936 -2.459,1.427 -0.825,0.47 -1.639,0.962 -2.446,1.47 -1.601,1.039 -3.219,2.072 -4.804,3.189 -1.597,1.095 -3.223,2.158 -4.858,3.217 -1.639,1.057 -3.378,1.894 -5.01,3.013 3.805,-0.896 7.567,-1.973 11.38,-3.04 3.785,-1.129 7.471,-2.581 10.863,-4.593 3.408,-1.975 6.675,-4.223 9.667,-6.831 1.482,-1.324 2.919,-2.697 4.228,-4.207 1.304,-1.504 2.547,-3.098 3.464,-4.899 z"
     style="fill:#ffffff" /><path
     inkscape:connector-curvature="0"
     id="path183"
     d="m 132.632,255.733 c -4.94,1.701 -9.371,4.281 -13.583,7.144 -4.189,2.9 -8.105,6.194 -11.675,9.875 -3.562,3.681 -6.793,7.756 -9.377,12.287 -1.291,2.259 -2.408,4.644 -3.238,7.137 -0.817,2.49 -1.408,5.083 -1.404,7.705 2.962,-4.276 5.99,-7.954 9.244,-11.56 3.215,-3.601 6.569,-7.071 9.939,-10.571 3.377,-3.494 6.789,-6.995 10.178,-10.597 3.375,-3.628 6.748,-7.294 9.916,-11.42 z"
     style="fill:#ffffff" /><path
     inkscape:connector-curvature="0"
     id="path185"
     d="m 111.127,251.785 c -2.284,1.45 -4.263,3.269 -6.137,5.158 l -1.376,1.449 c -0.445,0.493 -0.868,1.002 -1.305,1.504 -0.879,1.001 -1.678,2.055 -2.479,3.112 -3.168,4.252 -5.838,8.843 -8.1,13.613 l -1.58,3.628 c -0.512,1.216 -0.972,2.452 -1.41,3.695 -0.905,2.476 -1.663,5.003 -2.299,7.562 -0.345,1.27 -0.626,2.56 -0.857,3.862 -0.246,1.297 -0.462,2.6 -0.662,3.904 -0.338,2.625 -0.529,5.28 -0.505,7.962 1.49,-2.27 2.669,-4.597 3.875,-6.9 0.61,-1.148 1.205,-2.297 1.768,-3.452 0.292,-0.574 0.558,-1.156 0.832,-1.735 0.287,-0.574 0.591,-1.14 0.864,-1.717 0.566,-1.147 1.119,-2.295 1.642,-3.453 l 1.646,-3.435 c 0.543,-1.145 1.029,-2.314 1.607,-3.44 l 1.59,-3.441 6.416,-13.751 c 2.146,-4.622 4.284,-9.238 6.47,-14.125 z"
     style="fill:#ffffff" /><path
     inkscape:connector-curvature="0"
     id="path187"
     d="m 103.828,242.832 c -5.319,4.19 -9.637,9.472 -13.366,15.073 -3.723,5.624 -6.773,11.705 -9.096,18.06 -1.242,3.148 -2.1,6.437 -2.997,9.694 -0.344,1.66 -0.71,3.313 -1.015,4.976 -0.143,0.834 -0.355,1.651 -0.434,2.497 l -0.286,2.524 c -0.866,6.7 -0.572,13.543 0.644,20.144 1.783,-6.54 3.014,-12.874 4.904,-19.065 0.78,-3.12 1.867,-6.154 2.748,-9.225 l 1.56,-4.54 c 0.259,-0.756 0.476,-1.526 0.759,-2.274 l 0.857,-2.241 c 2.188,-6.009 4.623,-11.941 7.287,-17.829 2.638,-5.913 5.458,-11.759 8.435,-17.794 z"
     style="fill:#ffffff" /><path
     inkscape:connector-curvature="0"
     id="path189"
     d="m 64.3,251.41 c 0.371,6.478 0.963,12.727 1.513,18.979 0.58,6.237 1.17,12.433 1.687,18.632 l 0.232,2.322 0.166,2.326 0.408,4.651 0.737,9.33 c 0.597,6.247 0.889,12.504 1.811,18.962 2.083,-6.141 3.317,-12.52 3.841,-18.934 0.348,-3.21 0.369,-6.427 0.422,-9.648 -0.064,-3.215 -0.138,-6.439 -0.46,-9.64 -0.544,-6.412 -1.653,-12.772 -3.301,-18.992 -1.682,-6.203 -3.798,-12.339 -7.056,-17.988 z"
     style="fill:#ffffff" /><path
     inkscape:connector-curvature="0"
     id="path191"
     d="m 50.696,266.129 c -0.924,3.582 -1.206,7.275 -1.239,10.951 -0.02,3.681 0.27,7.372 0.871,11.019 0.612,3.643 1.445,7.27 2.642,10.788 0.535,1.782 1.257,3.498 1.942,5.229 0.33,0.871 0.748,1.705 1.145,2.548 0.403,0.84 0.79,1.688 1.208,2.52 l 0.087,0.172 0.061,0.097 c 0.274,0.432 0.62,1.022 0.921,1.563 0.314,0.553 0.604,1.123 0.909,1.691 0.614,1.132 1.164,2.302 1.722,3.471 1.105,2.345 2.074,4.755 2.964,7.206 0.902,2.455 1.576,4.974 2.186,7.561 0.606,2.597 0.899,5.248 1.179,8.059 1.056,-2.584 1.753,-5.397 1.965,-8.249 0.212,-2.846 0.154,-5.755 -0.296,-8.587 -0.408,-2.844 -1.101,-5.642 -2.002,-8.368 -0.456,-1.362 -0.978,-2.7 -1.54,-4.03 -0.275,-0.666 -0.59,-1.318 -0.908,-1.974 -0.328,-0.669 -0.634,-1.277 -1.051,-2.02 l 0.148,0.269 c -1.406,-3.135 -2.809,-6.27 -4.002,-9.507 -0.648,-1.599 -1.176,-3.243 -1.781,-4.866 -0.518,-1.649 -1.139,-3.278 -1.614,-4.951 -1.067,-3.318 -2.018,-6.693 -2.924,-10.118 -0.913,-3.429 -1.754,-6.892 -2.593,-10.474 z"
     style="fill:#ffffff" /><path
     inkscape:connector-curvature="0"
     id="path193"
     d="m 44.333,280.069 c -1.309,6.977 -1.398,14.056 -0.97,21.078 0.46,7.027 1.594,14.021 3.37,20.876 0.481,1.705 0.945,3.414 1.488,5.104 0.538,1.689 1.136,3.364 1.749,5.03 1.285,3.315 2.739,6.573 4.414,9.718 1.709,3.132 3.615,6.158 5.768,8.996 1.132,1.387 2.215,2.788 3.479,4.054 0.623,0.638 1.211,1.293 1.876,1.888 0.671,0.59 1.315,1.193 1.999,1.755 -0.719,-1.637 -1.537,-3.162 -2.225,-4.76 -0.736,-1.563 -1.388,-3.161 -2.078,-4.717 -1.302,-3.165 -2.517,-6.324 -3.652,-9.507 -1.095,-3.202 -2.154,-6.399 -3.128,-9.63 -0.458,-1.626 -0.98,-3.228 -1.401,-4.866 -0.483,-1.617 -0.9,-3.257 -1.338,-4.889 -1.704,-6.548 -3.268,-13.159 -4.745,-19.845 -1.5,-6.69 -2.938,-13.417 -4.606,-20.285 z"
     style="fill:#ffffff" /><path
     inkscape:connector-curvature="0"
     id="path195"
     d="m 79.196,390.264 c -4.086,-7.233 -8.542,-14.098 -13.081,-20.886 -4.56,-6.769 -9.21,-13.443 -13.892,-20.076 L 38.134,329.469 c -4.668,-6.639 -9.353,-13.22 -13.799,-20.225 0.453,2.019 1.002,4.025 1.574,6.041 0.642,1.977 1.393,3.911 2.126,5.866 0.745,1.95 1.647,3.807 2.503,5.703 0.848,1.903 1.802,3.737 2.774,5.564 1.889,3.695 4.039,7.217 6.173,10.758 l 3.366,5.189 c 1.133,1.724 2.328,3.399 3.506,5.089 4.757,6.725 9.861,13.185 15.296,19.362 5.456,6.158 11.162,12.112 17.543,17.448 z"
     style="fill:#ffffff" /><path
     inkscape:connector-curvature="0"
     id="path197"
     d="M 82.59,397.784 C 77.826,391.43 72.703,385.525 67.493,379.722 62.267,373.937 56.949,368.277 51.555,362.706 46.15,357.141 40.742,351.613 35.296,346.113 29.845,340.588 24.411,335.16 19.231,329.17 c 0.688,1.845 1.419,3.718 2.28,5.52 0.901,1.766 1.847,3.526 2.837,5.258 1.047,1.68 2.111,3.356 3.204,5.017 1.108,1.644 2.284,3.227 3.452,4.826 4.754,6.311 9.907,12.286 15.384,17.909 5.469,5.636 11.193,11.008 17.189,16.071 6.017,5.038 12.239,9.855 19.013,14.013 z"
     style="fill:#ffffff" /><path
     inkscape:connector-curvature="0"
     id="path199"
     d="m 89.696,404.71 -19.585,-8.358 c -6.468,-2.795 -12.871,-5.658 -19.158,-8.72 -6.285,-3.064 -12.459,-6.309 -18.426,-9.923 -2.973,-1.819 -5.924,-3.694 -8.779,-5.732 -2.877,-2.016 -5.626,-4.212 -8.404,-6.504 3.802,6.122 9.068,11.31 14.782,15.73 5.744,4.419 11.992,8.129 18.47,11.275 6.481,3.15 13.204,5.745 20.063,7.841 6.869,2.055 13.874,3.704 21.037,4.391 z"
     style="fill:#ffffff" /><path
     inkscape:connector-curvature="0"
     id="path201"
     d="m 108.515,302.202 c -2.619,-0.248 -5.247,0.165 -7.796,0.769 l -1.902,0.523 c -0.635,0.181 -1.235,0.434 -1.858,0.65 -1.252,0.426 -2.443,0.976 -3.627,1.553 -4.735,2.315 -9.009,5.521 -12.732,9.224 l -2.645,2.912 c -0.437,0.489 -0.858,0.99 -1.237,1.523 -0.39,0.525 -0.791,1.04 -1.166,1.576 -1.589,2.077 -2.885,4.344 -4.113,6.628 -0.653,1.118 -1.15,2.323 -1.646,3.519 -0.499,1.195 -0.968,2.399 -1.418,3.603 -0.416,1.221 -0.721,2.49 -1.031,3.744 -0.308,1.255 -0.563,2.525 -0.76,3.806 1.831,-1.91 3.348,-3.909 4.893,-5.859 0.812,-0.951 1.605,-1.902 2.367,-2.863 0.39,-0.475 0.757,-0.962 1.129,-1.444 0.352,-0.496 0.805,-0.92 1.183,-1.393 0.795,-0.92 1.575,-1.842 2.327,-2.78 0.367,-0.476 0.773,-0.919 1.18,-1.359 l 1.204,-1.331 c 1.534,-1.836 3.232,-3.493 4.845,-5.231 3.356,-3.338 6.827,-6.531 10.585,-9.484 3.769,-2.963 7.71,-5.735 12.218,-8.286 z"
     style="fill:#ffffff" /><path
     inkscape:connector-curvature="0"
     id="path203"
     d="m 119.366,321.358 c -1.529,-0.648 -3.142,-1.095 -4.773,-1.448 -1.633,-0.361 -3.298,-0.6 -4.978,-0.731 -3.361,-0.275 -6.791,-0.112 -10.181,0.491 -6.779,1.18 -13.409,4.286 -18.699,8.966 -1.328,1.192 -2.527,2.38 -3.761,3.775 -1.122,1.341 -2.148,2.695 -3.117,4.107 -1.915,2.829 -3.58,5.844 -4.856,9.063 -1.249,3.222 -2.134,6.661 -2.251,10.187 -0.11,3.502 0.628,7.14 2.554,9.923 -0.396,-6.703 2.149,-12.205 5.193,-17.463 1.541,-2.619 3.275,-5.149 5.116,-7.598 0.92,-1.22 1.867,-2.439 2.837,-3.572 0.889,-1.053 1.984,-2.16 3.042,-3.158 4.308,-4.047 9.484,-7.136 15.251,-9.189 5.776,-2.017 12.046,-3.173 18.623,-3.353 z"
     style="fill:#ffffff" /><path
     inkscape:connector-curvature="0"
     id="path205"
     d="m 94.822,337.736 c -2.06,0.011 -4.045,0.609 -5.937,1.368 -0.925,0.416 -1.873,0.837 -2.735,1.38 -0.446,0.254 -0.88,0.527 -1.317,0.8 -0.412,0.299 -0.835,0.591 -1.238,0.908 -3.274,2.486 -5.96,5.722 -7.986,9.285 l -1.344,2.757 c -0.451,0.92 -0.743,1.896 -1.074,2.856 -0.694,1.913 -1.074,3.905 -1.378,5.89 -0.192,0.984 -0.219,1.994 -0.252,2.995 -0.034,1.001 -0.035,2 -0.019,2.991 0.164,1.998 0.478,3.985 1.014,5.928 1.027,-1.808 1.738,-3.587 2.467,-5.328 0.406,-0.86 0.794,-1.713 1.149,-2.563 0.36,-0.849 0.668,-1.705 1.088,-2.516 0.388,-0.821 0.76,-1.639 1.099,-2.462 0.33,-0.829 0.785,-1.594 1.157,-2.393 0.705,-1.618 1.597,-3.112 2.375,-4.667 1.717,-3.011 3.542,-5.928 5.658,-8.761 2.119,-2.852 4.432,-5.602 7.273,-8.468 z"
     style="fill:#ffffff" /></g>

</svg>