<?xml version="1.0" encoding="UTF-8" standalone="no"?>
<!-- Generator: Adobe Illustrator 27.5.0, SVG Export Plug-In . SVG Version: 6.00 Build 0)  -->

<svg
   xmlns:dc="http://purl.org/dc/elements/1.1/"
   xmlns:cc="http://creativecommons.org/ns#"
   xmlns:rdf="http://www.w3.org/1999/02/22-rdf-syntax-ns#"
   xmlns:svg="http://www.w3.org/2000/svg"
   xmlns="http://www.w3.org/2000/svg"
   xmlns:sodipodi="http://sodipodi.sourceforge.net/DTD/sodipodi-0.dtd"
   xmlns:inkscape="http://www.inkscape.org/namespaces/inkscape"
   version="1.1"
   x="0px"
   y="0px"
   viewBox="0 0 95.999992 322.15628"
   xml:space="preserve"
   id="svg24"
   sodipodi:docname="leaf-1.svg"
   width="95.999992"
   height="322.15628"
   inkscape:version="0.92.5 (2060ec1f9f, 2020-04-08)"><metadata
   id="metadata30"><rdf:RDF><cc:Work
       rdf:about=""><dc:format>image/svg+xml</dc:format><dc:type
         rdf:resource="http://purl.org/dc/dcmitype/StillImage" /><dc:title></dc:title></cc:Work></rdf:RDF></metadata><defs
   id="defs28" /><sodipodi:namedview
   pagecolor="#ffffff"
   bordercolor="#666666"
   borderopacity="1"
   objecttolerance="10"
   gridtolerance="10"
   guidetolerance="10"
   inkscape:pageopacity="0"
   inkscape:pageshadow="2"
   inkscape:window-width="1366"
   inkscape:window-height="705"
   id="namedview26"
   showgrid="false"
   fit-margin-top="0"
   fit-margin-left="0"
   fit-margin-right="0"
   fit-margin-bottom="0"
   inkscape:zoom="0.6675088"
   inkscape:cx="-217.29881"
   inkscape:cy="264.93939"
   inkscape:window-x="-8"
   inkscape:window-y="-8"
   inkscape:window-maximized="1"
   inkscape:current-layer="g21" />

<g
   id="OBJECTS"
   transform="translate(-182.57931,-122.79614)">
	<g
   id="g21">
		
		
		
		
		
		
		
		<path
   d="m 198.29221,127.97466 c 8.24854,9.09516 6.29011,19.26814 7.89833,29.92902 4.14638,8.08704 8.18735,16.18938 12.05832,24.34102 -0.40291,-1.68133 -0.78712,-3.37116 -1.03023,-5.10519 -0.70211,-4.41157 -1.15092,-27.41127 6.90213,-22.87729 6.28331,3.36096 3.15015,15.69467 1.26142,20.44625 -1.54193,3.85567 -4.64278,7.75724 -4.99129,12.08721 4.82808,10.39568 9.33826,20.89167 13.33164,31.56445 -0.0646,-2.20154 -0.59162,-4.34018 -0.76162,-6.59442 -0.45221,-5.10009 -0.57971,-29.66721 7.05172,-27.49627 7.78614,2.10294 4.12938,18.65612 2.39874,23.3346 -1.87003,5.05759 -4.96408,9.13766 -7.62973,13.70734 2.87815,7.90684 5.47579,15.91397 7.70454,24.06052 0.60181,-1.60483 1.27162,-3.16376 1.85812,-4.74479 1.80204,-4.52208 10.63539,-32.26656 18.21922,-24.01122 5.32789,5.6033 -2.69284,17.81462 -6.21871,22.09189 -3.54116,4.41497 -7.83713,8.08534 -12.71112,11.03319 2.14884,8.39134 3.89137,16.93909 5.16979,25.66875 0.61372,-1.79354 1.26823,-3.60746 1.93974,-5.4248 2.17094,-5.16639 10.36678,-22.7685 18.37561,-19.15593 6.45162,2.90195 -1.63713,16.00238 -4.05797,19.38714 -3.82676,5.19529 -9.26005,9.65787 -15.37846,11.9274 0.2669,2.27295 0.55251,4.54078 0.75311,6.83752 0.49301,5.7053 0.80582,11.4531 0.99282,17.2162 0.17,-0.3774 0.31111,-0.76332 0.48621,-1.13562 2.14714,-4.39968 12.1705,-23.78511 18.50482,-18.46062 9.01015,7.37133 -12.74342,22.62229 -18.85163,26.05805 0.12411,9.18526 -0.1105,18.41302 -0.70211,27.65608 1.16622,-2.01453 2.28144,-4.03247 3.56326,-5.9093 2.66055,-3.68907 14.51995,-20.32045 19.40583,-14.23265 4.11238,5.02359 -3.40005,13.40473 -6.84601,16.41039 -4.76009,4.04437 -10.57588,6.67261 -16.47669,8.68204 -0.55761,7.23024 -1.30902,14.45706 -2.26954,21.66008 1.32433,-1.89383 2.89515,-3.60916 4.30278,-5.32279 3.80976,-4.69038 7.77594,-9.45217 13.33333,-12.19771 5.39929,-2.67245 13.44893,-2.68095 12.64482,5.45709 -1.14412,13.78214 -20.19975,14.94326 -31.03404,17.291 -1.46713,9.98257 -3.30145,19.90395 -5.47919,29.71992 1.45692,-2.07234 2.69624,-4.26537 3.96787,-6.37002 4.17187,-6.37 15.61646,-23.2853 24.69292,-13.44383 6.47201,7.06363 -4.50167,15.33427 -10.20187,17.76531 -6.06911,2.43954 -12.43912,2.99205 -18.80743,3.61766 -3.15525,13.99635 -6.97352,27.77169 -11.4004,41.13392 -0.238,0.72081 -1.25972,0.3043 -1.08292,-0.39781 3.52077,-14.07284 6.82902,-28.17969 9.70717,-42.33413 -0.47941,-3.31506 -3.83696,-5.52 -6.37681,-7.81844 -3.74517,-3.20115 -26.73636,-28.05048 -10.83429,-26.84177 10.17638,0.96902 16.40869,17.39471 18.47082,28.399 1.54363,-7.97654 2.91555,-15.97348 4.11237,-23.98402 -1.70682,-1.80883 -3.61086,-3.33886 -5.66449,-4.90459 -3.87097,-2.86114 -27.25318,-20.32895 -18.46062,-25.51064 6.1235,-3.57345 16.76739,10.09478 19.41943,13.79745 2.02134,2.81694 4.34528,6.2306 5.6866,9.81596 0.89252,-6.59441 1.64223,-13.20242 2.22704,-19.82404 -1.05402,-1.73743 -3.20625,-3.16036 -4.71418,-4.25007 -3.26066,-2.76425 -28.30889,-17.4763 -19.42114,-23.2717 5.11369,-3.29976 15.83238,8.05983 18.46913,11.11139 2.54664,2.95125 5.08648,6.47541 6.1422,10.37527 0.60181,-8.23154 0.93842,-16.49538 0.96902,-24.78642 -2.13864,-1.44162 -4.15997,-3.19266 -6.34451,-4.50508 -3.92877,-2.36474 -8.30975,-3.85397 -12.10932,-6.55532 -3.12805,-2.06553 -12.57851,-9.84147 -10.19337,-14.54034 2.92235,-5.7954 15.53657,5.35679 17.96591,7.55322 4.18378,3.75027 8.36415,8.13125 10.65748,13.34864 -0.085,-7.71474 -0.4097,-15.44987 -1.07781,-23.22241 -0.1156,-1.36682 -0.30941,-2.70984 -0.45221,-4.06816 -1.52493,-1.00132 -3.14506,-1.64564 -4.89949,-2.39875 -4.90968,-1.81393 -9.26175,-4.07326 -13.39283,-7.28972 -2.74555,-2.05024 -15.59437,-11.86621 -13.44893,-16.26249 2.51095,-5.03888 17.4627,6.45841 19.67784,8.18734 4.37928,3.28617 8.78065,7.11123 11.4157,11.91721 -1.18152,-8.82485 -2.93255,-17.47291 -5.07119,-25.99855 -1.63883,-1.20872 -3.55306,-1.09142 -5.53189,-1.44843 -4.85869,-0.88741 -9.27027,-2.64864 -13.45574,-5.36359 -3.54456,-2.34774 -14.46045,-10.01997 -12.43402,-15.49747 3.13656,-8.78575 23.31591,9.97748 30.45943,18.45212 -2.19814,-8.22134 -4.80598,-16.31008 -7.69263,-24.31212 -1.82583,-0.3672 -3.57006,-1.15602 -5.34999,-1.58613 -3.78087,-1.00812 -7.61443,-1.51812 -11.295,-3.13995 -4.25347,-1.83093 -16.84559,-7.78613 -17.4406,-13.19563 -0.59841,-6.44991 15.70147,1.39232 18.08832,2.66735 4.39967,2.13183 10.18487,4.73968 13.62403,8.79425 -3.57686,-9.35356 -7.52093,-18.58812 -11.7047,-27.73258 -2.07234,-0.2584 -4.12427,-0.36211 -6.13881,-0.52871 -4.22967,-0.136 -8.19074,-0.306 -12.13141,-2.28144 -3.29636,-1.60993 -12.73832,-7.30672 -12.08891,-11.8645 1.26652,-8.72626 24.23902,5.50979 29.0042,11.7625 -3.99507,-8.62085 -8.16354,-17.1805 -12.41021,-25.70614 -3.39156,-2.30355 -6.52132,-5.09839 -9.61197,-7.74024 -6.2204,-5.28369 -12.76552,-12.50372 -12.94402,-21.13646 -0.25841,-11.2457 10.35317,-8.36075 15.70827,-2.48545 z"
   id="path19"
   inkscape:connector-curvature="0"
   style="fill:#ffffff;stroke-width:1.70002949" />
	</g>
</g>
</svg>