<?xml version="1.0" encoding="UTF-8" standalone="no"?>
<!-- Generator: Adobe Illustrator 27.5.0, SVG Export Plug-In . SVG Version: 6.00 Build 0)  -->

<svg
   xmlns:dc="http://purl.org/dc/elements/1.1/"
   xmlns:cc="http://creativecommons.org/ns#"
   xmlns:rdf="http://www.w3.org/1999/02/22-rdf-syntax-ns#"
   xmlns:svg="http://www.w3.org/2000/svg"
   xmlns="http://www.w3.org/2000/svg"
   xmlns:sodipodi="http://sodipodi.sourceforge.net/DTD/sodipodi-0.dtd"
   xmlns:inkscape="http://www.inkscape.org/namespaces/inkscape"
   version="1.1"
   x="0px"
   y="0px"
   viewBox="0 0 132 203.04308"
   xml:space="preserve"
   id="svg24"
   sodipodi:docname="leaf-2.svg"
   width="132"
   height="203.04308"
   inkscape:version="0.92.5 (2060ec1f9f, 2020-04-08)"><metadata
   id="metadata30"><rdf:RDF><cc:Work
       rdf:about=""><dc:format>image/svg+xml</dc:format><dc:type
         rdf:resource="http://purl.org/dc/dcmitype/StillImage" /><dc:title></dc:title></cc:Work></rdf:RDF></metadata><defs
   id="defs28" /><sodipodi:namedview
   pagecolor="#ffffff"
   bordercolor="#666666"
   borderopacity="1"
   objecttolerance="10"
   gridtolerance="10"
   guidetolerance="10"
   inkscape:pageopacity="0"
   inkscape:pageshadow="2"
   inkscape:window-width="1366"
   inkscape:window-height="705"
   id="namedview26"
   showgrid="false"
   inkscape:zoom="0.6675088"
   inkscape:cx="-84.70022"
   inkscape:cy="1.5668759"
   inkscape:window-x="-8"
   inkscape:window-y="-8"
   inkscape:window-maximized="1"
   inkscape:current-layer="svg24"
   fit-margin-top="2"
   fit-margin-left="2"
   fit-margin-right="2"
   fit-margin-bottom="2" />

<g
   id="OBJECTS"
   transform="matrix(1.1232701,0,0,1.1232701,-186.6431,-309.0245)">
	<g
   id="g21">
		
		
		
		
		<path
   d="m 261.011,381.891 c -11.491,4.317 -22.351,9.745 -24.528,22.719 -0.634,4.194 -0.597,8.311 -2.154,12.114 -2.916,3.537 -5.567,7.204 -7.724,11.048 2.441,-16.779 2.676,-34.186 0.313,-51.092 0.08,-0.088 0.136,-0.201 0.142,-0.34 0.321,-9.124 3.829,-16.373 8.422,-23.661 1.49,-0.928 3.12,-1.647 4.791,-2.493 8.762,-4.603 18.668,-9.123 21.334,-19.622 2.844,-11.151 -3.565,-24.39 -6.977,-34.928 -4.703,11.105 -15.767,18.116 -20.254,29.282 -3.866,9.499 -0.718,19.472 -2.327,29.094 -2.984,4.878 -5.558,10.16 -6.244,15.751 -1.451,-7.88 -3.495,-15.612 -6.17,-23.08 -0.723,-4.125 -1.909,-8.154 -2.404,-12.221 -1.469,-11.639 -0.544,-22.619 -8.903,-32.183 -9.643,-10.853 -25.69,-17.156 -37.696,-25.387 1.799,7.051 4.865,13.748 7.652,20.603 6.223,16.463 11.199,32.348 27.178,41.441 3.293,1.811 9.102,4.047 12.038,7.245 5.534,15.65 8.031,32.139 8.385,48.841 -1.882,-3.594 -4.602,-6.885 -7.782,-9.887 -0.216,-0.744 -0.431,-1.476 -0.688,-2.175 -5.395,-21.15 -24.997,-23.051 -43.917,-28.273 8.838,7.823 9.887,20.985 21.226,27.393 6.666,3.561 14.639,2.956 21.568,5.316 4.074,3.861 7.497,8.204 9.639,13.342 -0.104,14.487 -1.73,29.08 -4.288,43.369 -1.214,-2.729 -2.727,-5.245 -4.479,-7.588 0.049,-1.335 0.106,-2.703 0.139,-3.972 1.101,-29.42 -27.982,-30.896 -49.362,-40.776 2.954,4.56 5.413,9.219 7.595,14.034 6.057,11.968 11.161,24.848 25.237,28.966 4.077,1.126 9.306,0.54 13.365,1.927 2.633,2.934 5.035,6.124 6.959,9.837 0.021,0.041 0.053,0.064 0.079,0.099 -0.422,2.255 -0.86,4.508 -1.324,6.746 -0.148,0.716 0.892,1.018 1.101,0.304 1.999,-6.795 3.63,-13.822 4.863,-20.983 3.474,-5.228 7.133,-10.171 11.156,-14.923 1.777,-0.237 3.621,-0.032 5.645,0.227 9.675,0.564 21.117,4.895 29.511,-2.619 8.73,-7.889 8.998,-30.051 9.766,-41.306 -6.859,2.79 -13.871,5.3 -20.883,7.811 z"
   id="path13"
   inkscape:connector-curvature="0" />
		
		
		
	</g>
</g>
</svg>