<?xml version="1.0" encoding="UTF-8" standalone="no"?>
<!-- Generator: Adobe Illustrator 27.5.0, SVG Export Plug-In . SVG Version: 6.00 Build 0)  -->

<svg
   xmlns:dc="http://purl.org/dc/elements/1.1/"
   xmlns:cc="http://creativecommons.org/ns#"
   xmlns:rdf="http://www.w3.org/1999/02/22-rdf-syntax-ns#"
   xmlns:svg="http://www.w3.org/2000/svg"
   xmlns="http://www.w3.org/2000/svg"
   xmlns:sodipodi="http://sodipodi.sourceforge.net/DTD/sodipodi-0.dtd"
   xmlns:inkscape="http://www.inkscape.org/namespaces/inkscape"
   version="1.1"
   x="0px"
   y="0px"
   viewBox="0 0 96 85.764107"
   xml:space="preserve"
   id="svg34"
   sodipodi:docname="leaf-4.svg"
   width="96"
   height="85.764107"
   inkscape:version="0.92.5 (2060ec1f9f, 2020-04-08)"><metadata
   id="metadata40"><rdf:RDF><cc:Work
       rdf:about=""><dc:format>image/svg+xml</dc:format><dc:type
         rdf:resource="http://purl.org/dc/dcmitype/StillImage" /><dc:title></dc:title></cc:Work></rdf:RDF></metadata><defs
   id="defs38" /><sodipodi:namedview
   pagecolor="#ffffff"
   bordercolor="#666666"
   borderopacity="1"
   objecttolerance="10"
   gridtolerance="10"
   guidetolerance="10"
   inkscape:pageopacity="0"
   inkscape:pageshadow="2"
   inkscape:window-width="1366"
   inkscape:window-height="705"
   id="namedview36"
   showgrid="false"
   fit-margin-top="0"
   fit-margin-left="0"
   fit-margin-right="0"
   fit-margin-bottom="0"
   inkscape:zoom="1.888"
   inkscape:cx="31.396515"
   inkscape:cy="46.179741"
   inkscape:window-x="-8"
   inkscape:window-y="-8"
   inkscape:window-maximized="1"
   inkscape:current-layer="svg34" />

<g
   id="OBJECTS"
   transform="matrix(0.94409205,0,0,0.94409205,-193.0554,-183.65247)"
   style="fill:#ffffff">
	<g
   id="g31"
   style="fill:#ffffff">
		
		
		
		
		<path
   style="fill:#ffffff"
   d="m 274.4339,220.57314 c -5.378,-1.263 -11.314,2.027 -14.486,6.256 -3.527,4.705 -0.929,11.588 4.714,12.982 -0.009,0.004 -0.017,0.008 -0.024,0.014 -3.072,1.854 -5.816,4.065 -8.342,6.612 -0.945,0.953 -2.153,2.135 -3.054,3.436 -0.066,-1.054 -0.142,-2.107 -0.238,-3.16 -0.429,-4.685 -1.306,-9.527 -2.709,-14.224 0.935,-1.306 3.056,-2.242 4.162,-3.454 5.743,-5.905 9.843,-15.818 3.803,-22.89 -4.315,-5.098 -12.508,-5.663 -18.589,-7.142 -5.146,-1.244 -10.004,-3.099 -15.081,-4.475 0.435,1.788 1.474,3.655 2.071,5.44 0.463,1.388 0.9,2.725 1.19,4.158 0.576,2.861 0.935,5.829 0.805,8.748 -0.396,8.86 -3.002,20.732 8.026,24.074 3.462,1.124 10.542,1.4 12.573,-2.662 0.962,4.352 1.504,8.85 1.749,13.461 0.298,5.59 -0.007,11.2 -0.544,16.766 -0.216,2.228 -0.531,4.423 -0.895,6.605 -0.256,-0.483 -0.524,-0.955 -0.778,-1.414 -1.693,-3.057 -3.508,-5.95 -5.667,-8.655 5.407,-2.345 6.905,-7.954 2.987,-12.803 -4.742,-5.771 -17.4,-4.969 -24.002,-5.409 -5.854,-0.302 -12.318,-0.451 -17.617,-3.228 2.977,2.314 5.37,5.421 7.106,8.756 2.589,4.682 3.052,10.476 6.101,14.914 3.873,5.662 15.421,9.291 20.871,4.044 1.562,-1.529 2.263,-3.496 3.252,-5.35 3.056,4.107 5.951,9.037 6.934,13.644 -0.53,2.75 -1.096,5.494 -1.617,8.263 -0.242,1.288 1.395,2.091 2.148,0.929 3.131,-4.83 3.082,-12.641 3.662,-18.243 0.457,-4.423 0.593,-8.868 0.455,-13.307 1.672,-1.466 2.842,-3.731 4.28,-5.366 2.178,-2.474 4.784,-4.601 7.449,-6.529 -0.683,1.763 -0.759,3.917 -0.541,5.739 1.173,10.487 15.786,9.72 22.884,6.401 9.408,-4.216 12.375,-13.458 18.701,-20.676 -5.35,-0.102 -10.591,-0.555 -15.494,-2.78 -5.68,-2.485 -10.073,-8.148 -16.245,-9.475 z"
   id="path13"
   inkscape:connector-curvature="0" />
		
		
		
		
		
		
		
	</g>
</g>
</svg>